<svg xmlns="http://www.w3.org/2000/svg" viewBox="0 0 620 100" width="620" height="100">
  
  <g transform="translate(48, 50)">
    <rect x="-26" y="-17" width="28" height="34" rx="5" fill="#0C4A6E" opacity="1"/>
    <rect x="-1" y="-17" width="28" height="34" rx="17" fill="#0C4A6E" opacity="0.85"/>
    <rect x="-1" y="-17" width="5" height="34" fill="#0C4A6E"/>
    <rect x="-22" y="-12" width="18" height="5" rx="1.5" fill="none" stroke="#0C4A6E" stroke-width="0.8"/>
    <rect x="-22" y="-4" width="18" height="5" rx="1.5" fill="none" stroke="#0C4A6E" stroke-width="0.8"/>
    <rect x="-22" y="4" width="18" height="5" rx="1.5" fill="none" stroke="#0C4A6E" stroke-width="0.8"/>
    <circle cx="-6" cy="-9.5" r="1.2" fill="#0EA5E9"/>
    <circle cx="-6" cy="-1.5" r="1.2" fill="#0EA5E9"/>
    <circle cx="-6" cy="6.5" r="1.2" fill="#0EA5E9"/>
    <path d="M6,4 C5,-2 8,-7 13,-7 C16,-7 18,-5 19,-3 C21,-3 22,-1 22,2 C22,4 20,6 18,6 L8,6 C6,6 5,5 5,3" 
          fill="none" stroke="#0C4A6E" stroke-width="0.8" stroke-linecap="round"/>
    <path d="M10,0 L13,-3 L16,0" fill="none" stroke="#0EA5E9" stroke-width="0.9" stroke-linecap="round" stroke-linejoin="round"/>
    <line x1="13" y1="-2" x2="13" y2="4" stroke="#0EA5E9" stroke-width="0.9" stroke-linecap="round"/>
  </g>
  <text x="90" y="42" font-family="Segoe UI, SF Pro Display, sans-serif" font-weight="300" font-size="26" fill="#0F172A" letter-spacing="3">HYBRID</text>
  <text x="232" y="42" font-family="Segoe UI, SF Pro Display, sans-serif" font-weight="700" font-size="26" fill="#0F172A" letter-spacing="1">CLOUD</text>
  <text x="90" y="68" font-family="Segoe UI, SF Pro Display, sans-serif" font-weight="600" font-size="14" fill="#0369A1" letter-spacing="3">SOLUTIONS</text>
</svg>