<svg xmlns="http://www.w3.org/2000/svg" viewBox="0 0 200 200" width="200" height="200">
  <rect width="200" height="200" rx="24" fill="#0F172A"/>
  <g transform="translate(100, 100)">
    <rect x="-62" y="-38" width="66" height="76" rx="10" fill="white" opacity="0.97"/>
    <rect x="-4" y="-38" width="66" height="76" rx="38" fill="white" opacity="0.88"/>
    <rect x="-4" y="-38" width="10" height="76" fill="white"/>
    <g transform="translate(-29, 0)">
      <rect x="-16" y="-20" width="32" height="11" rx="2.5" fill="none" stroke="#0F172A" stroke-width="1.5"/>
      <rect x="-16" y="-5" width="32" height="11" rx="2.5" fill="none" stroke="#0F172A" stroke-width="1.5"/>
      <rect x="-16" y="10" width="32" height="11" rx="2.5" fill="none" stroke="#0F172A" stroke-width="1.5"/>
      <circle cx="11" cy="-14.5" r="2" fill="#38BDF8"/>
      <circle cx="11" cy="0.5" r="2" fill="#38BDF8"/>
      <circle cx="11" cy="15.5" r="2" fill="#38BDF8"/>
      <line x1="-12" y1="-14.5" x2="4" y2="-14.5" stroke="#0F172A" stroke-width="1" opacity="0.3"/>
      <line x1="-12" y1="0.5" x2="4" y2="0.5" stroke="#0F172A" stroke-width="1" opacity="0.3"/>
      <line x1="-12" y1="15.5" x2="4" y2="15.5" stroke="#0F172A" stroke-width="1" opacity="0.3"/>
    </g>
    <g transform="translate(29, -2)">
      <path d="M-14,10 C-17,-2 -10,-16 4,-16 C12,-16 18,-11 20,-5 C24,-5 27,0 27,6 C27,12 23,15 18,15 L-10,15 C-14,15 -17,12 -17,9" 
            fill="none" stroke="#0F172A" stroke-width="1.5" stroke-linecap="round"/>
      <path d="M-4,2 L2,-6 L8,2" fill="none" stroke="#38BDF8" stroke-width="1.6" stroke-linecap="round" stroke-linejoin="round"/>
      <line x1="2" y1="-4" x2="2" y2="11" stroke="#38BDF8" stroke-width="1.6" stroke-linecap="round"/>
    </g>
  </g>
</svg>