<svg xmlns="http://www.w3.org/2000/svg" viewBox="0 0 1200 630" width="1200" height="630">
  <rect width="1200" height="630" fill="#0C4A6E"/>
  <g transform="translate(600, 260)">
    <rect x="-130" y="-70" width="140" height="140" rx="18" fill="white" opacity="0.97"/>
    <rect x="-8" y="-70" width="140" height="140" rx="70" fill="white" opacity="0.88"/>
    <rect x="-8" y="-70" width="16" height="140" fill="white"/>
    <g transform="translate(-60, 0)">
      <rect x="-28" y="-36" width="56" height="20" rx="4.5" fill="none" stroke="#0C4A6E" stroke-width="2.2"/>
      <rect x="-28" y="-10" width="56" height="20" rx="4.5" fill="none" stroke="#0C4A6E" stroke-width="2.2"/>
      <rect x="-28" y="16" width="56" height="20" rx="4.5" fill="none" stroke="#0C4A6E" stroke-width="2.2"/>
      <circle cx="20" cy="-26" r="3.5" fill="#0EA5E9"/>
      <circle cx="20" cy="0" r="3.5" fill="#0EA5E9"/>
      <circle cx="20" cy="26" r="3.5" fill="#0EA5E9"/>
    </g>
    <g transform="translate(62, -2)">
      <path d="M-22,14 C-26,-6 -14,-26 8,-26 C20,-26 30,-18 34,-8 C40,-8 44,0 44,8 C44,18 38,24 30,24 L-16,24 C-22,24 -26,18 -26,12" 
            fill="none" stroke="#0C4A6E" stroke-width="2.2" stroke-linecap="round"/>
      <path d="M-8,2 L2,-10 L12,2" fill="none" stroke="#0EA5E9" stroke-width="2.5" stroke-linecap="round" stroke-linejoin="round"/>
      <line x1="2" y1="-8" x2="2" y2="16" stroke="#0EA5E9" stroke-width="2.5" stroke-linecap="round"/>
    </g>
  </g>
  <text x="600" y="430" text-anchor="middle" font-family="Segoe UI, SF Pro Display, sans-serif" font-weight="600" font-size="48" fill="white" letter-spacing="4">HYBRID CLOUD SOLUTIONS</text>
  <text x="600" y="478" text-anchor="middle" font-family="Segoe UI, SF Pro Display, sans-serif" font-weight="300" font-size="22" fill="white" opacity="0.6" letter-spacing="6">HYBRID CLOUD MADE SIMPLE</text>
</svg>